<svg xmlns="http://w3.org" viewBox="0 0 100 100" width="100%" height="100%">
  <circle cx="50" cy="50" r="50" fill="#26A17B" />

  <g fill="#FFFFFF">
    <path d="M 18,22 H 82 V 34 H 18 Z" />
    <path d="M 44,34 H 56 V 62 H 44 Z" />
    <path fill-rule="evenodd" clip-rule="evenodd"
          d="M 50,47 C 69.33,47 85,53.72 85,62 C 85,70.28 69.33,77 50,77 C 30.67,77 15,70.28 15,62 C 15,53.72 30.67,47 50,47 Z M 50,56 C 63.81,56 75,60.03 75,65 C 75,69.97 63.81,74 50,74 C 36.19,74 25,69.97 25,65 C 25,60.03 36.19,56 50,56 Z" />
  </g>
</svg>
